<svg viewBox="0 0 16 16" xmlns="http://www.w3.org/2000/svg">
    <path id="Path"
          fill="#F9F9FB"
          d="M8.00001 14.4151C7.58579 14.4151 7.25005 14.0704 7.24998 13.6452L7.25001 8.75004L2.3548 8.75006C1.92967 8.75004 1.585 8.41428 1.585 8.00006C1.58501 7.58584 1.9297 7.25002 2.35483 7.25003L7.25001 7.25004L7.25001 2.35486C7.25001 1.92971 7.58579 1.58506 8 1.58506C8.41423 1.58506 8.75001 1.92971 8.75001 2.35487L8.75001 7.25004L13.6452 7.25002C14.0704 7.25007 14.415 7.58583 14.415 8.00005C14.415 8.41427 14.0704 8.75003 13.6452 8.75005L8.75001 8.75004L8.75004 13.6452C8.74997 14.0704 8.41423 14.4151 8.00001 14.4151Z"
    />
</svg>
