<svg width="24" height="24" viewBox="0 0 24 24" fill="none" xmlns="http://www.w3.org/2000/svg">
<path id="Combined Shape" fill-rule="evenodd" clip-rule="evenodd" d="M12 10C12.2761 10 12.5261 10.1119 12.7071 10.2929L15.7071 13.2929C16.0976 13.6834 16.0976 14.3166 15.7071 14.7071C15.3166 15.0976 14.6834 15.0976 14.2929 14.7071L13 13.4142V21C13 21.5523 12.5523 22 12 22C11.4477 22 11 21.5523 11 21V13.4142L9.70711 14.7071C9.31658 15.0976 8.68342 15.0976 8.29289 14.7071C7.90237 14.3166 7.90237 13.6834 8.29289 13.2929L11.2929 10.2929C11.4739 10.1119 11.7239 10 12 10ZM13 2C17.1549 2 20.57 5.16745 20.9624 9.2194C22.7458 9.85449 24 11.5454 24 13.5C24 15.7461 22.345 17.6393 20.1416 17.9545C20.2565 17.9624 20.2094 17.9664 20.0005 17.9666C19.4482 17.9668 19.0003 17.5194 19 16.9671C18.9997 16.4148 19.4472 15.9668 19.9995 15.9666L19.9277 15.966C19.7143 15.9656 19.3509 15.9649 19.9226 15.9646C21.1121 15.7628 22 14.7256 22 13.5C22 12.2529 21.0774 11.1899 19.8382 10.9868C19.3548 10.9076 19 10.4899 19 10C19 6.68629 16.3137 4 13 4C10.3062 4 7.9636 5.79122 7.23189 8.34152C7.09114 8.8321 6.60354 9.13796 6.1006 9.05117C5.9039 9.01722 5.70327 9 5.5 9C3.567 9 2 10.567 2 12.5C2 14.2705 3.32185 15.7545 5.05831 15.9725L5.01623 15.9705C5.56851 15.9702 6.01647 16.4177 6.01676 16.97C6.01705 17.5223 5.56958 17.9702 5.01729 17.9706C4.97156 17.9706 4.92917 17.9692 4.89012 17.9665C2.11768 17.66 0 15.3103 0 12.5C0 9.46243 2.46243 7 5.5 7L5.58124 7.00059C6.78365 4.02407 9.69291 2 13 2Z" fill="#7A7A94"/>
</svg>
