<svg width="100" height="100" viewBox="0 0 100 100" fill="none" xmlns="http://www.w3.org/2000/svg">
<path id="Combined Shape" fill-rule="evenodd" clip-rule="evenodd" d="M59.0278 0C60.2249 0 61.3732 0.478909 62.2195 1.33132L89.3029 28.604C90.1492 29.4565 90.625 30.6126 90.625 31.8182V86.3636C90.625 89.9805 89.1982 93.4486 86.6586 96.0059C84.1191 98.5632 80.675 100 77.0833 100H22.9167C19.3252 100 15.8808 98.5632 13.3413 96.0059C10.8017 93.4486 9.375 89.9805 9.375 86.3636V13.6364C9.375 10.0198 10.8017 6.55132 13.3413 3.994C15.8808 1.43668 19.3252 0 22.9167 0H59.0278ZM57.1581 9.09091H22.9167C21.7195 9.09091 20.5714 9.56982 19.7249 10.4222C18.8784 11.2747 18.4028 12.4308 18.4028 13.6364V86.3636C18.4028 87.5691 18.8784 88.7255 19.7249 89.5777C20.5714 90.43 21.7195 90.9091 22.9167 90.9091H77.0833C78.2804 90.9091 79.4288 90.43 80.2751 89.5777C81.1215 88.7255 81.5972 87.5691 81.5972 86.3636V33.701L57.1581 9.09091ZM68.0556 68.1818C70.5486 68.1818 72.5694 70.2168 72.5694 72.7273C72.5694 75.2377 70.5486 77.2727 68.0556 77.2727H31.9444C29.4515 77.2727 27.4306 75.2377 27.4306 72.7273C27.4306 70.2168 29.4515 68.1818 31.9444 68.1818H68.0556ZM68.0556 50C70.5486 50 72.5694 52.035 72.5694 54.5455C72.5694 57.0559 70.5486 59.0909 68.0556 59.0909H31.9444C29.4515 59.0909 27.4306 57.0559 27.4306 54.5455C27.4306 52.035 29.4515 50 31.9444 50H68.0556ZM40.9722 31.8182C43.4652 31.8182 45.4861 33.8533 45.4861 36.3636C45.4861 38.874 43.4652 40.9091 40.9722 40.9091H31.9444C29.4515 40.9091 27.4306 38.874 27.4306 36.3636C27.4306 33.8533 29.4515 31.8182 31.9444 31.8182H40.9722Z" fill="#F0F0F5"/>
</svg>
