<svg width="32" height="32" viewBox="0 0 32 32" fill="none" xmlns="http://www.w3.org/2000/svg">

    <path id="Vector"
          d="M18.4681 17.9862C17.2285 19.3521 15.1256 19.4555 13.7606 18.2151C12.3955 16.982 12.2922 14.8704 13.5245 13.5044C14.7641 12.1385 16.867 12.0351 18.232 13.2755C19.597 14.516 19.7003 16.6203 18.4681 17.9862Z"
          fill="#B9B9CB"/>
    <path id="Vector_2"
          d="M9.48839 11.3263L15.1478 8.05538C15.6643 7.76004 16.2988 7.76004 16.8153 8.05538L22.4747 11.3263C22.851 11.5478 23.124 11.9022 23.2421 12.3083C23.3528 11.9465 23.6331 11.6733 24.0021 11.4592L29.9492 8.03323C29.7721 7.72312 29.5139 7.4647 29.1966 7.28011L17.0219 0.273189C16.7046 0.0886018 16.3505 0 15.9963 0C15.6421 0 15.288 0.0886018 14.9707 0.273189L2.8034 7.28011C2.48612 7.4647 2.22787 7.72312 2.05078 8.03323L7.99792 11.4592C8.35209 11.6659 8.63248 11.8874 8.76529 12.2123C8.89811 11.8431 9.1416 11.5256 9.48839 11.3263Z"
          fill="#B9B9CB"/>
    <path id="Vector_3"
          d="M9.50315 20.7475C9.25966 20.6072 9.06781 20.4079 8.92762 20.179C8.79481 19.9649 8.72102 19.7212 8.69151 19.4702C8.67675 19.4111 8.66199 19.3668 8.66199 19.3299C8.66199 19.3299 8.66199 15.269 8.66199 13.2311C8.66199 12.6626 8.26355 12.1089 7.77656 11.8283L1.85894 8.41711C1.80729 8.59432 1.77777 8.7789 1.77777 8.97088V22.9773C1.77777 23.7157 2.16884 24.395 2.81077 24.7568L14.9781 31.7637C15.1625 31.867 15.3617 31.9335 15.561 31.9778C15.6126 31.9926 15.679 31.9926 15.7454 31.9999V24.2104C15.5536 24.1808 15.3396 24.1218 15.1625 24.0184L9.50315 20.7475Z"
          fill="#B9B9CB"/>
    <path id="Vector_4"
          d="M30.141 8.41711L24.2234 11.8283C23.7364 12.1089 23.3159 12.6552 23.3159 13.2238C23.3159 14.1172 23.3159 15.3945 23.3159 16.5537V19.3077C23.3159 19.3151 23.3159 19.3299 23.3159 19.3299C23.3159 19.3668 23.3085 19.4111 23.2937 19.4554C23.2642 19.7286 23.183 19.987 23.0355 20.2085C22.8953 20.4227 22.7108 20.6146 22.4821 20.7475L16.8227 24.0184C16.6382 24.1218 16.4611 24.1735 16.2545 24.203V31.9999C16.321 31.9926 16.3726 31.9926 16.439 31.9778C16.6382 31.9335 16.8375 31.867 17.0219 31.7637L29.1892 24.7568C29.8238 24.3876 30.2222 23.7083 30.2222 22.9773V8.97088C30.2222 8.7789 30.1927 8.59432 30.141 8.41711Z"
          fill="#B9B9CB"/>

</svg>
