<svg width="18" height="18" xmlns="http://www.w3.org/2000/svg">
    <path id="Vector" fill-rule="evenodd" clip-rule="evenodd"
          d="M7.0007 1.75012C9.9002 1.75012 12.2507 4.10063 12.2507 7.00012C12.2507 8.17967 11.8617 9.26836 11.205 10.1449L14.0296 12.9695C14.3225 13.2624 14.3225 13.7373 14.0296 14.0302C13.7367 14.3231 13.2619 14.3231 12.969 14.0302L10.1442 11.2054C9.26785 11.8615 8.17966 12.2501 7.0007 12.2501C4.10121 12.2501 1.7507 9.89962 1.7507 7.00012C1.7507 4.10063 4.10121 1.75012 7.0007 1.75012ZM7.0007 10.7501C9.07177 10.7501 10.7507 9.07119 10.7507 7.00012C10.7507 4.92905 9.07177 3.25012 7.0007 3.25012C4.92963 3.25012 3.2507 4.92905 3.2507 7.00012C3.2507 9.07119 4.92963 10.7501 7.0007 10.7501Z"
          fill="#B9B9CB"/>
</svg>
