<svg width="16" height="16" viewBox="0 0 16 16" fill="none" xmlns="http://www.w3.org/2000/svg">
<path id="Oval Copy" d="M15.5 8C15.5 12.1421 12.1421 15.5 8 15.5C3.85786 15.5 0.5 12.1421 0.5 8C0.5 3.85786 3.85786 0.5 8 0.5C12.1421 0.5 15.5 3.85786 15.5 8Z" fill="#E3F9E5" stroke="#51CA58"/>
<path id="Path" fill-rule="evenodd" clip-rule="evenodd" d="M12.4553 4.79289C12.8458 5.18342 12.8458 5.81658 12.4553 6.20711L7.45532 11.2071C7.06479 11.5976 6.43163 11.5976 6.0411 11.2071L3.54472 8.79565C3.1542 8.40512 3.1542 7.77196 3.54472 7.38143C3.93525 6.99091 4.56841 6.99091 4.95894 7.38143L6.74821 9.08579L11.0411 4.79289C11.4316 4.40237 12.0648 4.40237 12.4553 4.79289Z" fill="#18981D"/>
</svg>
